<svg fill="none" height="36" viewBox="0 0 36 36" width="36" xmlns="http://www.w3.org/2000/svg"><g fill="#e1ff25"><path d="m23.7367 16.5007c-.0479-.0293-8.248-4.2468-8.3008-4.2756-.6606-.3814-1.447-.3802-2.1059 0-.6589.3814-1.0527 1.0627-1.0527 1.8243v8.5488c0 .7616.3938 1.4429 1.0527 1.8243.3359.1937.7049.2881 1.0668.2881.3484 0 .6896-.0874.9883-.2609l8.3516-4.3028c.6589-.3814 1.0521-1.0627 1.0521-1.8231s-.3932-1.4417-1.0521-1.8231z"/><path d="m29.9038 6.35423c-.4723-.47231-1.2374-.47231-1.7097 0s-.4723 1.23745 0 1.70976c2.7358 2.73581 4.2425 6.37971 4.2425 10.25971s-1.5067 7.5239-4.2425 10.2598c-.4723.4723-.4723 1.2374 0 1.7097.2361.2362.5455.3543.8549.3543.3093 0 .6187-.1181.8548-.3543 3.1928-3.1916 4.951-7.4424 4.951-11.9695s-1.7582-8.77784-4.951-11.96947z"/><path d="m26.4312 9.82884c-.4723-.47231-1.2375-.47231-1.7098 0-.4723.47236-.4723 1.23746 0 1.70976 3.7419 3.7419 3.7419 9.8299 0 13.5718-.4723.4723-.4723 1.2375 0 1.7098.2362.2361.5455.3542.8549.3542s.6187-.1181.8549-.3542c2.2659-2.2659 3.514-5.2828 3.514-8.4957s-1.2481-6.2298-3.514-8.49566z"/><path d="m7.66015 8.06399c.47231-.47231.47231-1.23745 0-1.70976s-1.23745-.47231-1.70976 0c-3.19222 3.19163-4.95039 7.44357-4.95039 11.96947s1.75817 8.7779 4.95039 11.9695c.23616.2362.54552.3543.85488.3543s.61873-.1181.85488-.3543c.47231-.4723.47231-1.2374 0-1.7097-5.65708-5.6571-5.65708-14.8624 0-20.51951z"/><path d="m11.1345 9.82884c-.4723-.47231-1.23746-.47231-1.70977 0-2.2665 2.26586-3.51457 5.28276-3.51457 8.49566s1.24807 6.2298 3.51457 8.4957c.23615.2361.54552.3542.85487.3542.3094 0 .6187-.1181.8549-.3542.4723-.4723.4723-1.2375 0-1.7098-1.80955-1.8089-2.80612-4.2189-2.80612-6.7859s.99657-4.977 2.80612-6.7859c.4723-.4723.4723-1.2374 0-1.70976z"/></g></svg>