<svg fill="none" height="36" viewBox="0 0 36 36" width="36" xmlns="http://www.w3.org/2000/svg"><path clip-rule="evenodd" d="m29.7224 5.13866h-2.1378v-1.0701c0-.59013-.4789-1.06856-1.0689-1.06856s-1.0689.47843-1.0689 1.06856v1.0701h-14.9645v-1.0701c0-.59013-.4789-1.06856-1.06893-1.06856s-1.0689.47843-1.0689 1.06856v1.0701h-2.13779c-.85084 0-1.66641.33807-2.26713.93876-.60178.60221-.93955 1.41723-.93955 2.26846v4.27582h29.9291v-4.27582c0-.85123-.3378-1.66625-.9396-2.26846-.6007-.60069-1.4163-.93876-2.2671-.93876zm-21.37793 0v3.20722c0 .59013.47887 1.06856 1.0689 1.06856s1.06893-.47843 1.06893-1.06856v-3.20722zm17.10233 0v3.20722c0 .59013.4789 1.06856 1.0689 1.06856s1.0689-.47843 1.0689-1.06856v-3.20722zm7.4823 24.58764v-14.966h-29.9291v14.966c0 .8512.33777 1.6663.93955 2.2685.60072.6007 1.41629.9387 2.26713.9387h23.51572c.8508 0 1.6664-.338 2.2671-.9387.6018-.6022.9396-1.4173.9396-2.2685zm-23.79707-.882v.6001h8.30137v-2.0503h-5.3842c.0889-.1445.2111-.289.3667-.4334.1667-.1556.3612-.3168.5835-.4835.2333-.1667.4778-.3389.7334-.5167.5001-.3445.9724-.689 1.4169-1.0335.4445-.3556.8279-.7224 1.1502-1.1002.3223-.3779.5779-.7835.7668-1.2169s.2834-.9112.2834-1.4336c0-.3667-.0667-.7445-.2-1.1335-.1223-.4001-.3334-.7668-.6335-1.1002-.3-.3445-.7001-.6167-1.2002-.8168-.489-.2111-1.1002-.3167-1.8336-.3167-.8113 0-1.5392.1278-2.1837.3834-.6335.2556-1.1391.6446-1.51696 1.1669-.36673.5223-.55009 1.1891-.55009 2.0003 0 .1445.00556.2667.01667.3667.01111.1001.02223.1778.03334.2334h2.23374v-.6001c0-.3667.0666-.6723.2-.9168.1445-.2556.3501-.4501.6168-.5834.2667-.1445.6056-.2168 1.0168-.2168.4001 0 .7168.0778.9502.2334.2445.1445.4223.3279.5334.5501.1111.2223.1667.4445.1667.6668 0 .4667-.1278.8946-.3834 1.2835-.2556.3779-.589.7335-1.0002 1.0669-.4.3334-.8279.6723-1.2835 1.0168-.4001.289-.789.589-1.1669.9002-.3778.3112-.7223.639-1.0335.9835-.31116.3445-.55565.7223-.73345 1.1335-.17781.4112-.26672.8668-.26672 1.3669zm11.88037-2.0503c-.2111.8668-.3167 1.7503-.3167 2.6504h2.5338v-.8835c0-.689.0833-1.3724.25-2.0503.1667-.689.3945-1.3558.6835-2.0004.2889-.6556.6112-1.2835.9668-1.8836.3667-.6112.7501-1.1891 1.1502-1.7336.4001-.5446.7946-1.0502 1.1835-1.517v-1.3669h-8.4847v2.0671h5.6676c-.5001.5778-.9891 1.2279-1.4669 1.9503-.4668.7112-.8891 1.4669-1.2669 2.267-.3779.8002-.6779 1.6336-.9002 2.5005z" fill="#e1ff25" fill-rule="evenodd"/></svg>